<svg id="Layer_1" data-name="Layer 1" xmlns="http://www.w3.org/2000/svg" viewBox="0 0 500 500"><defs><style>.cls-1{fill:#fff;}</style></defs><path class="cls-1" d="M56,646V146H556V646Zm60.05-253.58c-6.87,3.5-10.28,9-10,16.63a17.22,17.22,0,0,0,1.41,4.89c1,2.73,3.6,4.15,5.25,6.34,2.44,3.25,6.48,2.09,9,3.46a36.38,36.38,0,0,1,4.06-.72c5.12-.29,8.8-3.3,12.16-6.67,1.37-1.37,2.06-3.44,3.06-5.19,0-1.5.09-3,0-4.5s.51-2.87-.87-4.16c-.89-.83-1.25-2.21-1.93-3.5,4.89,0,9.56.16,14.2-.06,2.66-.13,5,.82,7.45,1.39.9.21,2,.88,2.67.56,4.33-2.21,9.21-2.62,13.66-4.45a30.81,30.81,0,0,1,13-2.53c8.65.32,17.33.09,26,.09h209c1.49,0,3.11-.33,4.45.13q6.79,2.33,13.65,4.44c3.7,1.15,7.36,3.26,11.6,1.49a26.22,26.22,0,0,1,7.66-2c3.76-.32,7.57-.08,11.26-.08.81,2.45-.54,3.9-1.53,5.44-1.62,10.08,3.44,16,12.92,19.43l5.31.81c1.6-1.35,4-.39,5.41-.64,3.59-1.31,5.16-4,7.46-5.74,2.58-2,2.58-5,3.41-7.61,1.23-3.86-.36-7.47-2.33-10.77a17.24,17.24,0,0,0-3.3-3.88,32.29,32.29,0,0,0-4.08-2.66,22,22,0,0,1,1.77-1.37A16.17,16.17,0,0,0,505,371.78c-1.1-3.09-5.89-8.52-8.61-9.78-5.09-2.36-15-.59-19.28,3.37a20,20,0,0,0-6,8.57v7.14l3,4.92H459.62a11.72,11.72,0,0,1-3.14-.83c-3-.82-6.12-2.05-9.37-.79a73.32,73.32,0,0,1-9.55,3.47c-6,1.39-11.82,3.6-18.21,3.23-6.14-.36-12.32-.08-18.49-.08H188.91c-1.49,0-3.21.44-4.43-.14-5.36-2.54-11.24-3.41-16.71-5.55-3.43-1.34-7-2.19-10.51-.26-1.84,1-3.7.93-5.61.94q-5.25,0-10.5,0c-1,0-2.06-.16-3.06-.25L141,380.1c0-1.85,0-4.17,0-6.49,0-.38-.79-.68-.92-1.1-1.63-5.39-6-8.1-10.54-10.42-3.14-1.59-8.5-1.35-11.74-.38a14.63,14.63,0,0,0-10.11,9.08c-2.05,5.16-2.47,9.75,1.09,14.72A31.55,31.55,0,0,0,116.05,392.42Zm161.86-14.59-10.1-17.9-5.89.36,2.86,2.18v15.7l-2.33,2.65h7.25l-2.7-2.74c0-1.78-.05-4.09,0-6.4s-.28-4.47.47-7.68l9.62,16.87h3v-18l2.81-3c-3,.32-5-.28-7.68.86l2.69,1.8Zm80.89,3,.42-.86L357,378.26l1.34-4.14h8.35a11.77,11.77,0,0,1,1.21,3.36c.06,1.07-.6,2.18-.93,3.22h6.65c-1.43-1.83-3.1-2.75-3.62-4.45-1-3.39-1.95-6.82-3-10.2-.66-2-1.54-4-2.28-5.92h-3.89l-6.07,18.18-2.36,2.5ZM245.57,360.12c-1.63,4.5-3.13,8.54-4.55,12.61-.46,1.32-.43,2.85-1.09,4A19.08,19.08,0,0,1,237,380c-.08.09,0,.33,0,.82a26,26,0,0,0,7,0v-1.36l-2.3-1.09,1.55-4.21h8.45l1.25,4.46c-1,.55-2.71.31-1.68,2.17h6.78l-.22-1.56-2.56-.48c-2-6.34-3.82-12.39-5.74-18.62Zm41.43,8c0,3.21-.27,7,2.78,10.19,2.53,2.62,5.52,3,9.14,2.5,1.28-1.06,2.75-2.28,4.24-3.47.15-.13.45-.06.68-.09l.41,3.89,1.63-.43v-9.66c-2.56,0-5,0-7.46,0-.12,0-.23.22-.42.41l.18,1.4,4.81.24v2.38L299.42,379h-4.91c-6.1-4-7-8.57-2.63-15.38,2-1.66,4.3-1.92,7-1.44l4.26,3.79,2.16-.34c-1.19-3.29-4.46-3.59-5.88-5.56C293.25,359.48,289.16,361.94,287,368.15Zm26.51,12.68h14.21v-6l-1.63.41c-.07,1.25-.13,2.37-.19,3.53h-7.77v-7.9h6l-.28-1.78-5.64-.26V362c2.74.1,5.31-.14,8,.17V366l1.6-.1V360c-4.74.17-9.3-.27-14.84.38l2.81,2.09V378.1Zm18.2,29.57,2.23-1.76v-2.88l-2.18-2.54h-6.61V415.9H327v-4.8h2.5a41.71,41.71,0,0,0,2.37,4.19c.33.46,1.22.52,2.71,1.09Zm54.39,5.75,1.74-.35c.14-1.71.27-3.27.39-4.77h2.18a51.59,51.59,0,0,0,2.68,4.46c.26.36,1.22.22,2.38.37l-2.7-5.29L395,408.9v-3.44l-2.42-2.31H386.1ZM335.83,362.2v16.58l-1.81.63v1.36h14.77v-5.68l-1.18-.09c-.6,1.37-1.2,2.76-1.65,3.81H338.1V362.35c.92-.51,2.67-.28,1.63-2.12h-5.67a3,3,0,0,0-.05.71,7.47,7.47,0,0,0,.3.87ZM262,415.84c5.5.19,5.5.19,8.91-3.53v-6.17l-4.5-3.17-4.41.23Zm34-10.38a6.66,6.66,0,0,0-6-2.48L286,406.42v5.71l3.41,3.85a7.13,7.13,0,0,0,6.51-2.47Zm-71.17,5.94a8.22,8.22,0,0,0-6.66-3.55v-2.62h3.73l.37,1.81,2.76-.21-1.42-2.73c-2.55-2.16-5-1.14-7.47.28v4.22l5.72,2.76v2.53h-3.5l-.63-1.76h-2.63c.54,1.08,1,2,1.08,2.19,2,1.56,3.88,2.36,5.37,1.49S225.7,414.86,224.79,411.4Zm139.29-8.23h-9V405h6.09c-2.18,3-4.17,5.61-5.94,8.34-.41.63-.06,1.75-.06,2.48h8.73V414H357.6C359.62,410,363.12,407.43,364.08,403.17ZM254.84,413.66V403.09H253v9.54c-2.75,1.69-2.75,1.69-5.22-.52V403l-1.68.24v10.2l2.33,2.59h4.07Zm115.33-10.57v10.65c1.88,1.67,3.85,2.54,5.81,1.83l3-1.91c0-3.65,0-6.79,0-9.94,0-.24-.36-.48-.6-.79l-1.43.37v9.3c-2.57,1.76-2.57,1.76-5.11-.25v-9.26ZM313,415.9v-5.17l5-1.13-.17-1.6c-1.4,0-2.85,0-4.29,0-.2,0-.38-.45-.78-1l1.83-2.22H319l-.18-1.56h-7.69V415.9Zm31.32.22c-.16-4.95,3.24-8.44,4.89-12.66l-1.54-.56c-1,1.78-2,3.5-3.17,5.64l-3.13-5.6-2.34.23c1.39,2.7,2.65,5.16,3.87,7.56C343.35,412.5,342.37,414.5,344.32,416.12ZM239.91,403.17h-9.82V405h4.08v11.12l2-.37v-10.9h3.75ZM277,403c0,4.33-.06,8.67,0,12.82h2.79c0-4.27,0-8.37,0-12.48,0-.12-.21-.24-.3-.34Z" transform="translate(-56 -146)"/><path d="M116.05,392.42a31.55,31.55,0,0,1-7.31-6.91c-3.56-5-3.14-9.56-1.09-14.72a14.63,14.63,0,0,1,10.11-9.08c3.24-1,8.6-1.21,11.74.38,4.56,2.32,8.91,5,10.54,10.42.13.42.9.72.92,1.1.08,2.32,0,4.64,0,6.49l-2.91,5.64c1,.09,2,.24,3.06.25q5.25,0,10.5,0c1.91,0,3.77.09,5.61-.94,3.47-1.93,7.08-1.08,10.51.26,5.47,2.14,11.35,3,16.71,5.55,1.22.58,2.94.14,4.43.14h212c6.17,0,12.35-.28,18.49.08,6.39.37,12.22-1.84,18.21-3.23a73.32,73.32,0,0,0,9.55-3.47c3.25-1.26,6.36,0,9.37.79a11.72,11.72,0,0,0,3.14.83h14.47l-3-4.92v-7.14a20,20,0,0,1,6-8.57c4.31-4,14.19-5.73,19.28-3.37,2.72,1.26,7.51,6.69,8.61,9.78A16.17,16.17,0,0,1,497.75,391a22,22,0,0,0-1.77,1.37,32.29,32.29,0,0,1,4.08,2.66,17.24,17.24,0,0,1,3.3,3.88c2,3.3,3.56,6.91,2.33,10.77-.83,2.6-.83,5.63-3.41,7.61-2.3,1.77-3.87,4.43-7.46,5.74-1.41.25-3.81-.71-5.41.64l-5.31-.81c-9.48-3.42-14.54-9.35-12.92-19.43,1-1.54,2.34-3,1.53-5.44-3.69,0-7.5-.24-11.26.08a26.22,26.22,0,0,0-7.66,2c-4.24,1.77-7.9-.34-11.6-1.49q-6.84-2.13-13.65-4.44c-1.34-.46-3-.13-4.45-.13H215.14c-8.66,0-17.34.23-26-.09a30.81,30.81,0,0,0-13,2.53c-4.45,1.83-9.33,2.24-13.66,4.45-.63.32-1.77-.35-2.67-.56-2.46-.57-4.79-1.52-7.45-1.39-4.64.22-9.31.06-14.2.06.68,1.29,1,2.67,1.93,3.5,1.38,1.29.76,2.76.87,4.16s0,3,0,4.5c-1,1.75-1.69,3.82-3.06,5.19-3.36,3.37-7,6.38-12.16,6.67a36.38,36.38,0,0,0-4.06.72c-2.52-1.37-6.56-.21-9-3.46-1.65-2.19-4.26-3.61-5.25-6.34a17.22,17.22,0,0,1-1.41-4.89C105.77,401.45,109.18,395.92,116.05,392.42Zm361.78,4.91c-1.37,2-2.62,3.86-3.82,5.7-1.43,2.18-1.27,4.5-.6,6.89,2.14,7.66,9.58,10.94,15.08,11.07,1.66,0,3.32,0,4.62,0,4.4-2,8.05-4.43,9.89-8.82,0-2.49.11-5,0-7.47a7.68,7.68,0,0,0-1-4,44,44,0,0,0-5.51-5.66,3.93,3.93,0,0,0-2.54-1c-2.28.06-4.41-.84-6.57-.95-6.52-.34-13.11-.56-19.94,2.79h9ZM467.24,388c3.7,2,6.64,3.13,10,3,3.81-.14,7.64,0,11.46,0a15.91,15.91,0,0,0,5.61-.89c5.32-2,8.62-6.07,8.65-11.67,0-2,0-4,0-5.94-1-1.31-1.93-2.57-2.85-3.85-2.32-3.23-7.94-6.29-11.52-5.51-2,.45-4.22.64-6.23,1.77-2.39,1.34-4.75,2.65-6.46,4.75a35.38,35.38,0,0,0-2.94,5.1,22.28,22.28,0,0,0,0,3.63,40.42,40.42,0,0,0,1.37,4.66c.69,1.29,3.38,2,3.69,5ZM109,372.77c0,1.9,0,3.73,0,5.56.06,6.51,4.36,11.89,12.16,12.57,5.6.49,11.28.15,16.93.05a11.67,11.67,0,0,0,3.07-.95c1.37-.42,1.37-.42,2.47-1.87-3.2-.42-6.47.24-9.92-.44.87-2.47,3-3.45,4.29-5.33,0-.44-.27-1.29,0-1.72,2-2.77,1-5.54-.11-8.14-1.68-4-5.28-6.31-9-8-4.27-1.89-8.81-2.18-13,.51A19.13,19.13,0,0,0,109,372.77Zm35.42,22.63a82.25,82.25,0,0,0-13.74-2.5c-4.32-.28-8.35,1.2-12.59,1.19a5.44,5.44,0,0,0-3.26,1.66c-2.23,2.09-4.69,4.05-5.83,7.06,0,2-.14,4,0,6s.7,4,1,5.77c.68.68,1.19,1.12,1.62,1.63,3.7,4.42,8.64,5.5,14,4.71a13.21,13.21,0,0,0,6.34-2.63c2.71-2.26,5.57-4.58,7-8,0-5.91-1-8.65-4.94-13C137,394.53,140.8,397,144.42,395.4Zm325-3.06a28.39,28.39,0,0,0-2.9-1.32c-4.85-1.57-9.72-3.06-14.57-4.62a6.7,6.7,0,0,0-4.1.14c-5.08,1.38-9.77,4.09-15.15,4.52-.59.05-1.12.93-1.78,1.51,4.68,1.46,9.23,2.38,13.53,4.23,2.77,1.2,6.19,2.24,8.93,1.05C458.36,395.69,463.87,395.22,469.39,392.34Zm-327.75-.16c4,1.32,7.2,2.54,10.49,3.39s6.37,2.91,10,2.41a36.21,36.21,0,0,0,5.08-1A98.12,98.12,0,0,0,180,392.54c-.63-.63-.92-1.17-1.35-1.31-3.37-1.12-6.79-2.08-10.14-3.25-4.31-1.5-8.37-2.16-12.9-.11C151.33,389.83,146.53,390.73,141.64,392.18Z" transform="translate(-56 -146)"/><path d="M277.91,377.83V362.52l-2.69-1.8c2.68-1.14,4.68-.54,7.68-.86l-2.81,3v18h-3L267.48,364c-.75,3.21-.4,5.47-.47,7.68s0,4.62,0,6.4l2.7,2.74h-7.25l2.33-2.65v-15.7l-2.86-2.18,5.89-.36Z" transform="translate(-56 -146)"/><path d="M358.8,380.81h-6.42l2.36-2.5,6.07-18.18h3.89c.74,1.92,1.62,3.88,2.28,5.92,1.08,3.38,2,6.81,3,10.2.52,1.7,2.19,2.62,3.62,4.45H367c.33-1,1-2.15.93-3.22a11.77,11.77,0,0,0-1.21-3.36h-8.35L357,378.26l2.21,1.69Zm7.52-8.9c-1.27-3.33-2.35-6.19-3.72-9.81-1.34,3.78-2.39,6.73-3.49,9.81Z" transform="translate(-56 -146)"/><path d="M245.57,360.12h4c1.92,6.23,3.79,12.28,5.74,18.62l2.56.48.22,1.56h-6.78c-1-1.86.72-1.62,1.68-2.17l-1.25-4.46h-8.45l-1.55,4.21,2.3,1.09v1.36a26,26,0,0,1-7,0c0-.49-.07-.73,0-.82a19.08,19.08,0,0,0,2.92-3.2c.66-1.18.63-2.71,1.09-4C242.44,368.66,243.94,364.62,245.57,360.12Zm5.28,11.77-3.29-9.32c-2.1,3-2.4,6.22-3.78,9.32Z" transform="translate(-56 -146)"/><path d="M287,368.15c2.16-6.21,6.25-8.67,12.44-8.08,1.42,2,4.69,2.27,5.88,5.56l-2.16.34-4.26-3.79c-2.72-.48-5-.22-7,1.44-4.39,6.81-3.47,11.42,2.63,15.38h4.91l3.57-3.48v-2.38l-4.81-.24-.18-1.4c.19-.19.3-.41.42-.41,2.45,0,4.9,0,7.46,0v9.66l-1.63.43-.41-3.89c-.23,0-.53,0-.68.09-1.49,1.19-3,2.41-4.24,3.47-3.62.5-6.61.12-9.14-2.5C286.73,375.19,287,371.36,287,368.15Z" transform="translate(-56 -146)"/><path d="M313.51,380.83l2.25-2.73V362.45L313,360.36c5.54-.65,10.1-.21,14.84-.38v5.89l-1.6.1v-3.82c-2.71-.31-5.28-.07-8-.17v6.87l5.64.26.28,1.78h-6v7.9h7.77c.06-1.16.12-2.28.19-3.53l1.63-.41v6Z" transform="translate(-56 -146)"/><path d="M331.71,410.4l2.87,6c-1.49-.57-2.38-.63-2.71-1.09a41.71,41.71,0,0,1-2.37-4.19H327v4.8h-1.85V403.22h6.61l2.18,2.54v2.88Z" transform="translate(-56 -146)"/><path d="M386.1,416.15v-13h6.47l2.42,2.31v3.44l-2.22,1.67,2.7,5.29c-1.16-.15-2.12,0-2.38-.37a51.59,51.59,0,0,1-2.68-4.46h-2.18c-.12,1.5-.25,3.06-.39,4.77Z" transform="translate(-56 -146)"/><path d="M335.83,362.2l-1.52-.39a7.47,7.47,0,0,1-.3-.87,3,3,0,0,1,.05-.71h5.67c1,1.84-.71,1.61-1.63,2.12v16.46H346c.45-1.05,1.05-2.44,1.65-3.81l1.18.09v5.68H334v-1.36l1.81-.63Z" transform="translate(-56 -146)"/><path d="M262,415.84V403.2l4.41-.23,4.5,3.17v6.17C267.5,416,267.5,416,262,415.84Zm4.58-1.87,2.29-2.53v-4.07l-2.26-2.25h-2.39V414Z" transform="translate(-56 -146)"/><path d="M296,405.46v8.05a7.13,7.13,0,0,1-6.51,2.47L286,412.13v-5.71L290,403A6.66,6.66,0,0,1,296,405.46Zm-7.94,6,.48-.49,2.13,3.49L293.9,413v-7l-3.13-1.25L288,407.48Z" transform="translate(-56 -146)"/><path d="M224.79,411.4c.91,3.46-1.88,3.58-3.28,4.41s-3.4.07-5.37-1.49c-.1-.2-.54-1.11-1.08-2.19h2.63l.63,1.76h3.5v-2.53l-5.72-2.76v-4.22c2.47-1.42,4.92-2.44,7.47-.28l1.42,2.73-2.76.21-.37-1.81h-3.73v2.62A8.22,8.22,0,0,1,224.79,411.4Z" transform="translate(-56 -146)"/><path d="M364.08,403.17c-1,4.26-4.46,6.81-6.48,10.81h6.31v1.86h-8.73c0-.73-.35-1.85.06-2.48C357,410.63,359,408,361.18,405h-6.09v-1.85Z" transform="translate(-56 -146)"/><path d="M254.84,413.66,252.5,416h-4.07l-2.33-2.59v-10.2l1.68-.24v9.16c2.47,2.21,2.47,2.21,5.22.52v-9.54h1.84Z" transform="translate(-56 -146)"/><path d="M370.17,403.09h1.67v9.26c2.54,2,2.54,2,5.11.25v-9.3l1.43-.37c.24.31.59.55.6.79,0,3.15,0,6.29,0,9.94l-3,1.91c-2,.71-3.93-.16-5.81-1.83Z" transform="translate(-56 -146)"/><path d="M313,415.9h-1.85V403.23h7.69l.18,1.56h-4.4L312.79,407c.4.51.58.95.78,1,1.44.06,2.89,0,4.29,0l.17,1.6-5,1.13Z" transform="translate(-56 -146)"/><path d="M344.32,416.12c-1.95-1.62-1-3.62-1.42-5.39-1.22-2.4-2.48-4.86-3.87-7.56l2.34-.23,3.13,5.6c1.2-2.14,2.16-3.86,3.17-5.64l1.54.56C347.56,407.68,344.16,411.17,344.32,416.12Z" transform="translate(-56 -146)"/><path d="M239.91,403.17v1.68h-3.75v10.9l-2,.37V405h-4.08v-1.83Z" transform="translate(-56 -146)"/><path d="M277,403h2.51c.09.1.3.22.3.34,0,4.11,0,8.21,0,12.48h-2.79C277,411.67,277,407.33,277,403Z" transform="translate(-56 -146)"/><path class="cls-1" d="M477.83,397.33l-1.43-1.43h-9c6.83-3.35,13.42-3.13,19.94-2.79,2.16.11,4.29,1,6.57.95a3.93,3.93,0,0,1,2.54,1,44,44,0,0,1,5.51,5.66,7.68,7.68,0,0,1,1,4c.15,2.48,0,5,0,7.47-1.84,4.39-5.49,6.81-9.89,8.82-1.3,0-3,0-4.62,0-5.5-.13-12.94-3.41-15.08-11.07-.67-2.39-.83-4.71.6-6.89C475.21,401.19,476.46,399.37,477.83,397.33Zm-1.79,13c2.52,6.34,8.11,7.09,13.17,8.62,2-1.64,5.06-.58,7-2.62a21.2,21.2,0,0,0,4.06-6.32c1.23-2.88.12-4.95-.83-7-1.07-2.28-3-4.14-4.32-5.84-2.87-.46-5.23-1.19-7.57-1.11a11.72,11.72,0,0,0-6.71,2.95,53.53,53.53,0,0,0-4.75,4.82Z" transform="translate(-56 -146)"/><path class="cls-1" d="M467.24,388H478.1c-.31-3-3-3.71-3.69-5a40.42,40.42,0,0,1-1.37-4.66,22.28,22.28,0,0,1,0-3.63,35.38,35.38,0,0,1,2.94-5.1c1.71-2.1,4.07-3.41,6.46-4.75,2-1.13,4.19-1.32,6.23-1.77,3.58-.78,9.2,2.28,11.52,5.51.92,1.28,1.88,2.54,2.85,3.85,0,2,0,3.95,0,5.94,0,5.6-3.33,9.72-8.65,11.67a15.91,15.91,0,0,1-5.61.89c-3.82,0-7.65-.1-11.46,0C473.88,391.17,470.94,390.05,467.24,388Zm15.56-.74,10,.9c1.54-1,2.43-1.65,3.39-2.19a6.61,6.61,0,0,0,3.23-4c.61-2.07,1.49-4.2,1.47-6.31,0-2.54-4-7.88-6.35-8.61-3.75-1.15-7.57-2.11-11.44.19a17.57,17.57,0,0,0-7,7.28v6Z" transform="translate(-56 -146)"/><path class="cls-1" d="M109,372.77a19.13,19.13,0,0,1,6.94-7.74c4.16-2.69,8.7-2.4,13-.51,3.74,1.67,7.34,3.94,9,8,1.08,2.6,2.11,5.37.11,8.14-.31.43,0,1.28,0,1.72-1.33,1.88-3.42,2.86-4.29,5.33,3.45.68,6.72,0,9.92.44-1.1,1.45-1.1,1.45-2.47,1.87a11.67,11.67,0,0,1-3.07.95c-5.65.1-11.33.44-16.93-.05-7.8-.68-12.1-6.06-12.16-12.57C109,376.5,109,374.67,109,372.77Zm26.9,1.39a30,30,0,0,0-3.52-4.21c-6.2-5.29-14-6.07-19.38,1.55-.68,1-2.21,6.34-1.89,7.09,1.6,3.76,2.88,7.79,8.33,9.41h5.93c3-.08,6.88-2.89,8.7-5.4S136.2,377.36,135.9,374.16Z" transform="translate(-56 -146)"/><path class="cls-1" d="M144.42,395.4c-3.62,1.6-7.43-.87-10.36,1.88,3.9,4.32,4.94,7.06,4.94,13-1.4,3.45-4.26,5.77-7,8a13.21,13.21,0,0,1-6.34,2.63c-5.36.79-10.3-.29-14-4.71-.43-.51-.94-.95-1.62-1.63-.33-1.76-.84-3.75-1-5.77s0-4,0-6c1.14-3,3.6-5,5.83-7.06a5.44,5.44,0,0,1,3.26-1.66c4.24,0,8.27-1.47,12.59-1.19A82.25,82.25,0,0,1,144.42,395.4ZM136,409.92V405c-1.61-4.05-4.52-6.06-8-7.52-3.74-1.56-4.29-1.63-10.3-.28l-5.32,5c-.56,2.24-1.61,4.06-1.26,5.55.85,3.66,2.06,7.35,5.83,9.28a45.55,45.55,0,0,0,7.16,2C128.76,417.12,133.85,415.86,136,409.92Z" transform="translate(-56 -146)"/><path class="cls-1" d="M469.39,392.34c-5.52,2.88-11,3.35-16,5.51-2.74,1.19-6.16.15-8.93-1.05-4.3-1.85-8.85-2.77-13.53-4.23.66-.58,1.19-1.46,1.78-1.51,5.38-.43,10.07-3.14,15.15-4.52a6.7,6.7,0,0,1,4.1-.14c4.85,1.56,9.72,3.05,14.57,4.62A28.39,28.39,0,0,1,469.39,392.34Zm-22.22-2v4.45l3.86,1.39,3-2.62c-.06-1.78.41-3.39-1.56-4.43h-4.07Z" transform="translate(-56 -146)"/><path class="cls-1" d="M141.64,392.18c4.89-1.45,9.69-2.35,14-4.31,4.53-2.05,8.59-1.39,12.9.11,3.35,1.17,6.77,2.13,10.14,3.25.43.14.72.68,1.35,1.31A98.12,98.12,0,0,1,167.2,397a36.21,36.21,0,0,1-5.08,1c-3.62.5-6.67-1.55-10-2.41S145.65,393.5,141.64,392.18ZM165,394.66c-.25-2,.75-4.22-1.4-5.54h-4.2c-1.78,1.29-1.57,2.9-1.28,4.56l2.71,2.6c.93-.33,1.52-.52,2.1-.74S164.09,395.06,165,394.66Z" transform="translate(-56 -146)"/><path class="cls-1" d="M366.32,371.91h-7.21c1.1-3.08,2.15-6,3.49-9.81C364,365.72,365.05,368.58,366.32,371.91Z" transform="translate(-56 -146)"/><path class="cls-1" d="M250.85,371.89h-7.07c1.38-3.1,1.68-6.3,3.78-9.32Z" transform="translate(-56 -146)"/><path class="cls-1" d="M266.58,414h-2.36v-8.85h2.39l2.26,2.25v4.07Z" transform="translate(-56 -146)"/><path class="cls-1" d="M288,411.43v-3.95l2.75-2.75L293.9,406v7l-3.27,1.47-2.13-3.49Z" transform="translate(-56 -146)"/><path d="M476,410.37v-6.5a53.53,53.53,0,0,1,4.75-4.82,11.72,11.72,0,0,1,6.71-2.95c2.34-.08,4.7.65,7.57,1.11,1.3,1.7,3.25,3.56,4.32,5.84.95,2.05,2.06,4.12.83,7a21.2,21.2,0,0,1-4.06,6.32c-1.89,2-4.91,1-7,2.62C484.15,417.46,478.56,416.71,476,410.37Zm2-1.23c3.77,5.38,8.37,7.83,14.21,6.76,5.66-2,6.34-6.44,5.75-10.88-2.33-6.58-7.39-6.34-13.28-5.84L478,405.39Z" transform="translate(-56 -146)"/><path d="M482.8,387.3l-6.71-6.73v-6a17.57,17.57,0,0,1,7-7.28c3.87-2.3,7.69-1.34,11.44-.19,2.36.73,6.33,6.07,6.35,8.61,0,2.11-.86,4.24-1.47,6.31a6.61,6.61,0,0,1-3.23,4c-1,.54-1.85,1.19-3.39,2.19Zm10.9-18.1c-1.83-.45-3.5-1.44-4.8-1.07a28.22,28.22,0,0,0-7.93,3.52c-3.72,2.51-4,6.51-1,9.8S486.8,386.62,491,386l4.23-2.1,2.73-3.62V373.5Z" transform="translate(-56 -146)"/><path d="M135.9,374.16c.3,3.2,0,5.86-1.83,8.44s-5.71,5.32-8.7,5.4h-5.93c-5.45-1.62-6.73-5.65-8.33-9.41-.32-.75,1.21-6.13,1.89-7.09,5.39-7.62,13.18-6.84,19.38-1.55A30,30,0,0,1,135.9,374.16ZM125.11,386c1.6-.85,2.73-1.35,3.76-2a16.34,16.34,0,0,0,3-2.37c3.45-3.71,2.73-8.05-1.8-10.59-2.13-1.19-4.39-2.15-6.18-3l-5.06,1.23L114,374c.14,3.07-.79,6.59,1.91,9.42l5,2.58Z" transform="translate(-56 -146)"/><path d="M136,409.92c-2.15,5.94-7.24,7.2-11.88,9.07a45.55,45.55,0,0,1-7.16-2c-3.77-1.93-5-5.62-5.83-9.28-.35-1.49.7-3.31,1.26-5.55l5.32-5c6-1.35,6.56-1.28,10.3.28,3.47,1.46,6.38,3.47,8,7.52Zm-22.13-4.42c-1.15,7.63,3.9,13.35,14.21,9.41L134,409c.12-4.05.69-5-7.35-9.88C121.44,398.67,116.38,398.43,113.87,405.5Z" transform="translate(-56 -146)"/><path d="M447.17,390.33l1.21-1.21h4.07c2,1,1.5,2.65,1.56,4.43l-3,2.62-3.86-1.39Z" transform="translate(-56 -146)"/><path d="M165,394.66c-.94.4-1.5.66-2.07.88s-1.17.41-2.1.74l-2.71-2.6c-.29-1.66-.5-3.27,1.28-4.56h4.2C165.78,390.44,164.78,392.62,165,394.66Z" transform="translate(-56 -146)"/><path class="cls-1" d="M478,409.14v-3.75l6.68-6.21c5.89-.5,10.95-.74,13.28,5.84.59,4.44-.09,8.83-5.75,10.88C486.37,417,481.77,414.52,478,409.14Z" transform="translate(-56 -146)"/><path class="cls-1" d="M493.7,369.2l4.3,4.3v6.78l-2.73,3.62L491,386c-4.24.62-8-1.19-11.06-4.55s-2.73-7.29,1-9.8a28.22,28.22,0,0,1,7.93-3.52C490.2,367.76,491.87,368.75,493.7,369.2Z" transform="translate(-56 -146)"/><path class="cls-1" d="M125.11,386h-4.18l-5-2.58c-2.7-2.83-1.77-6.35-1.91-9.42l4.8-4.77,5.06-1.23c1.79.87,4,1.83,6.18,3,4.53,2.54,5.25,6.88,1.8,10.59a16.34,16.34,0,0,1-3,2.37C127.84,384.65,126.71,385.15,125.11,386Z" transform="translate(-56 -146)"/><path class="cls-1" d="M113.87,405.5c2.51-7.07,7.57-6.83,12.79-6.38,8,4.85,7.47,5.83,7.35,9.88l-5.93,5.91C117.77,418.85,112.72,413.13,113.87,405.5Z" transform="translate(-56 -146)"/><path class="cls-1" d="M327.1,405.72v2.73h3.42l.77-1.13v-1.9" transform="translate(-56 -146)"/><polyline class="cls-1" points="332.03 258.84 332.03 262.13 335.68 262.13 336.36 261.45 336.36 259.71 334.77 258.84"/><path class="cls-1" d="M391,405.06" transform="translate(-56 -146)"/></svg>